# xmcd CD database file
#
# Track frame offsets:
#	150
#	16265
#	31381
#	42019
#	57605
#	70824
#	86927
#	105535
#	120575
#	133222
#	143923
#	155224
#	174108
#
# Disc length: 2589 seconds
#
# Revision: 0
# Processed by: cddbd v1.4PL0 Copyright (c) Steve Scherf et al.
# Submitted via: CDex 1.40Release
#
DISCID=b40a1b0d
DTITLE=Various Artist - 20 to Life:  Prison Blues
DYEAR=1900
DGENRE=Blues
TTITLE0=Hogman Maxey - Duckin' And Dodgin'
TTITLE1=John Henry Jackson - My Baby Got to Go
TTITLE2=Otis Webster - Penitentiary Blues
TTITLE3=Guitar Welch - Lonesome Blues
TTITLE4=Jesse Butcher - They'll Miss Me When I'm Gone
TTITLE5=Hogman Maxey - Rock Me Mama
TTITLE6=Guitar Welch - Boll Weevil Blues
TTITLE7=Hogman Maxey - Hard Headed Woman
TTITLE8=Otis Webster - Standing At The Greyhound Bus Station
TTITLE9=John Henry Jackson - Tell Me Pretty Baby
TTITLE10=Otis Webster - Ball and Chain For Me
TTITLE11=Guitar Welch - Bad Luck Blues
TTITLE12=The Cool Cats - Goin' Home To My Old Used To Be
EXTD=ID3G: 0
EXTT0=
EXTT1=
EXTT2=
EXTT3=
EXTT4=
EXTT5=
EXTT6=
EXTT7=
EXTT8=
EXTT9=
EXTT10=
EXTT11=
EXTT12=
PLAYORDER=
